<?xml version="1.0" encoding="UTF-8" standalone="no"?>
<svg
   version="1.1"
   width="129.79562"
   height="122.15379"
   viewBox="0 0 129.79562 122.15379"
   id="svg117"
   sodipodi:docname="logo-no-background.svg"
   xmlns:inkscape="http://www.inkscape.org/namespaces/inkscape"
   xmlns:sodipodi="http://sodipodi.sourceforge.net/DTD/sodipodi-0.dtd"
   xmlns="http://www.w3.org/2000/svg"
   xmlns:svg="http://www.w3.org/2000/svg">
  <defs
     id="defs121" />
  <sodipodi:namedview
     id="namedview119"
     pagecolor="#ffffff"
     bordercolor="#666666"
     borderopacity="1.0"
     inkscape:showpageshadow="2"
     inkscape:pageopacity="0.0"
     inkscape:pagecheckerboard="0"
     inkscape:deskcolor="#d1d1d1"
     showgrid="false" />
  <g
     id="g92"
     transform="matrix(1.2979533,0,0,1.2979533,4.7493164e-4,-3.8203598)">
    <svg
       viewBox="0 0 104.43066 98.282562"
       height="98.282562"
       width="104.43066"
       version="1.1"
       id="svg90">
      <g
         id="g88">
        <svg
           version="1.1"
           x="0"
           y="0"
           viewBox="-1.2636185e-05 2.9436085 100.00003 94.112778"
           xml:space="preserve"
           width="104.43066"
           height="98.282562"
           class="icon-icon-0"
           data-fill-palette-color="accent"
           id="icon-0"><g
             fill="#d90000"
             data-fill-palette-color="accent"
             id="g85"><path
               d="m 82.643,61.574 c -0.346,0 -0.692,-0.104 -0.991,-0.316 C 80.992,60.79 80.75,59.92 81.075,59.177 83.303,54.082 79.745,51.302 68.159,44.03 58.741,38.111 57.22,32.04 57.606,27.991 c 0.623,-6.572 6.779,-12.603 16.886,-16.548 0.886,-0.345 1.875,0.093 2.217,0.972 0.344,0.88 -0.09,1.873 -0.971,2.215 -8.862,3.458 -14.228,8.445 -14.725,13.684 -0.42,4.435 2.68,8.868 8.966,12.818 7.997,5.02 13.974,8.77 15.014,13.759 2.886,-3.537 4.388,-6.999 4.476,-10.334 0.094,-3.633 -1.521,-7.198 -4.804,-10.597 -1.114,-1.146 -2.201,-2.218 -3.237,-3.239 -2.633,-2.598 -4.908,-4.842 -6.578,-7.239 -0.538,-0.775 -0.348,-1.842 0.426,-2.381 0.78,-0.543 1.841,-0.348 2.384,0.426 1.487,2.138 3.659,4.279 6.171,6.758 1.051,1.037 2.157,2.127 3.292,3.294 3.947,4.087 5.887,8.482 5.767,13.067 -0.143,5.451 -3.199,10.992 -9.082,16.468 -0.326,0.305 -0.745,0.46 -1.165,0.46 z"
               fill="#d90000"
               data-fill-palette-color="accent"
               id="path31" /><path
               d="m 74.942,17.828 c -0.886,0 -1.635,-0.683 -1.703,-1.58 -0.202,-2.638 0.307,-4.913 1.556,-6.956 0.45,-0.732 1.375,-1.014 2.153,-0.67 3.179,1.412 4.938,3.567 5.229,6.407 0.096,0.94 -0.588,1.78 -1.527,1.878 -0.925,0.099 -1.778,-0.587 -1.876,-1.528 -0.081,-0.773 -0.367,-1.828 -1.759,-2.818 -0.346,1.026 -0.464,2.145 -0.365,3.425 0.073,0.942 -0.633,1.764 -1.574,1.836 -0.045,0.004 -0.091,0.006 -0.134,0.006 z"
               fill="#d90000"
               data-fill-palette-color="accent"
               id="path33" /><path
               d="m 84.922,33.456 c -0.367,0 -0.739,-0.119 -1.051,-0.362 -0.745,-0.582 -0.876,-1.657 -0.295,-2.402 2.163,-2.772 5.211,-3.991 9.048,-3.627 1.474,-0.057 2.525,-0.417 3.127,-1.07 0.546,-0.592 0.823,-1.536 0.829,-2.808 -6.028,-6.561 -11.872,-9.717 -17.362,-9.355 -0.951,0.044 -1.757,-0.655 -1.818,-1.598 -0.061,-0.943 0.654,-1.757 1.598,-1.817 6.728,-0.446 13.634,3.251 20.547,10.944 0.259,0.29 0.413,0.66 0.434,1.049 0.141,2.53 -0.434,4.515 -1.709,5.901 -1.263,1.375 -3.167,2.108 -5.655,2.178 -0.079,-0.004 -0.149,-0.001 -0.222,-0.009 -2.727,-0.284 -4.667,0.456 -6.121,2.318 -0.336,0.432 -0.841,0.658 -1.35,0.658 z"
               fill="#d90000"
               data-fill-palette-color="accent"
               id="path35" /><path
               d="m 88.573,37.734 c -0.859,0 -1.599,-0.644 -1.698,-1.518 -0.108,-0.938 0.566,-1.786 1.505,-1.893 3.61,-0.412 5.034,-2.134 4.763,-5.758 -0.071,-0.942 0.635,-1.764 1.578,-1.835 0.929,-0.059 1.763,0.636 1.833,1.579 0.409,5.451 -2.356,8.794 -7.785,9.413 -0.067,0.008 -0.131,0.012 -0.196,0.012 z"
               fill="#d90000"
               data-fill-palette-color="accent"
               id="path37" /><path
               d="m 59.832,57.069 c -0.505,0 -1.006,-0.222 -1.344,-0.649 -0.586,-0.741 -0.462,-1.818 0.279,-2.405 0.741,-0.586 1.116,-1.214 1.15,-1.922 0.045,-0.977 -0.584,-2.163 -1.728,-3.255 -1.047,-1.047 -2.214,-1.677 -3.601,-1.955 -0.544,-0.109 -1.002,-0.476 -1.228,-0.984 -0.226,-0.508 -0.191,-1.093 0.094,-1.571 2.026,-3.389 2.639,-6.237 1.821,-8.461 C 54.41,33.509 51.86,31.592 47.699,30.17 31.227,24.558 20.218,17.313 14.897,8.595 c -0.955,3.632 0.228,8.349 9.25,13.754 0.812,0.485 1.075,1.537 0.59,2.347 -0.483,0.811 -1.535,1.078 -2.346,0.588 C 9.055,17.299 10.087,9.182 13.301,3.778 c 0.326,-0.551 0.916,-0.86 1.58,-0.833 0.641,0.041 1.204,0.438 1.46,1.028 4.006,9.261 14.929,16.985 32.462,22.958 5.189,1.773 8.447,4.383 9.685,7.758 1.014,2.763 0.652,5.956 -1.077,9.514 1.169,0.514 2.23,1.246 3.172,2.188 1.859,1.776 2.845,3.869 2.752,5.864 -0.081,1.704 -0.925,3.242 -2.442,4.444 -0.314,0.248 -0.69,0.37 -1.061,0.37 z"
               fill="#d90000"
               data-fill-palette-color="accent"
               id="path39" /><path
               d="m 22.129,32.316 c -0.171,0 -0.346,-0.027 -0.518,-0.082 -5.722,-1.822 -9.487,-4.666 -11.192,-8.449 -1.664,-3.693 -1.34,-8.213 0.962,-13.435 0.383,-0.866 1.397,-1.253 2.256,-0.874 0.865,0.381 1.258,1.391 0.876,2.255 -1.896,4.295 -2.222,7.877 -0.974,10.647 1.289,2.861 4.354,5.08 9.109,6.596 0.902,0.287 1.399,1.249 1.112,2.15 -0.232,0.727 -0.906,1.192 -1.631,1.192 z"
               fill="#d90000"
               data-fill-palette-color="accent"
               id="path41" /><path
               d="m 29.58,41.912 c -6.639,0 -14.305,-3.115 -17.717,-15.944 -0.242,-0.914 0.301,-1.851 1.214,-2.094 0.91,-0.249 1.849,0.301 2.095,1.214 2.623,9.871 8.036,14.202 16.525,13.283 0.933,-0.091 1.786,0.575 1.888,1.514 0.102,0.939 -0.576,1.784 -1.515,1.888 -0.806,0.088 -1.639,0.139 -2.49,0.139 z"
               fill="#d90000"
               data-fill-palette-color="accent"
               id="path43" /><path
               d="m 36.542,48.407 c -6.582,0 -11.463,-2.843 -14.544,-8.484 -0.454,-0.829 -0.147,-1.87 0.682,-2.323 0.825,-0.451 1.869,-0.147 2.32,0.682 2.996,5.484 8.007,7.574 15.334,6.375 0.922,-0.146 1.812,0.48 1.963,1.414 0.153,0.932 -0.479,1.812 -1.413,1.963 -1.52,0.249 -2.969,0.373 -4.342,0.373 z"
               fill="#d90000"
               data-fill-palette-color="accent"
               id="path45" /><path
               d="m 44.087,54.85 c -6.522,0 -11.029,-2.674 -13.422,-7.971 -0.389,-0.862 -0.006,-1.875 0.857,-2.264 0.863,-0.39 1.875,-0.004 2.263,0.855 2.079,4.61 6.06,6.457 12.534,5.845 0.925,-0.098 1.776,0.599 1.867,1.541 0.091,0.942 -0.599,1.776 -1.54,1.866 -0.885,0.085 -1.737,0.128 -2.559,0.128 z"
               fill="#d90000"
               data-fill-palette-color="accent"
               id="path47" /><path
               d="m 54.24,68.361 c -0.196,0 -0.397,-0.033 -0.592,-0.106 C 41.475,63.767 35.987,58.309 37.34,52.033 c 0.198,-0.925 1.104,-1.519 2.031,-1.313 0.924,0.198 1.513,1.108 1.313,2.032 -1.165,5.419 7.05,9.675 14.147,12.292 0.886,0.326 1.34,1.311 1.014,2.197 -0.255,0.692 -0.909,1.12 -1.605,1.12 z"
               fill="#d90000"
               data-fill-palette-color="accent"
               id="path49" /><path
               d="m 56.694,47.487 c -0.637,0 -1.246,-0.355 -1.542,-0.965 -0.411,-0.851 -0.057,-1.874 0.793,-2.286 3.252,-1.577 4.993,-3.713 5.321,-6.53 0.11,-0.939 0.984,-1.603 1.899,-1.501 0.939,0.109 1.611,0.959 1.501,1.898 -0.468,4.014 -2.9,7.113 -7.227,9.212 -0.24,0.117 -0.495,0.172 -0.745,0.172 z"
               fill="#d90000"
               data-fill-palette-color="accent"
               id="path51" /><path
               d="m 63.994,91.289 c -0.149,0 -0.303,-0.02 -0.456,-0.062 -0.91,-0.25 -1.444,-1.193 -1.193,-2.105 1.564,-5.671 2.562,-11.09 2.965,-16.108 0.041,-0.521 0.32,-0.994 0.755,-1.285 5.347,-3.58 7.435,-9.121 6.384,-16.942 -0.126,-0.937 0.531,-1.798 1.468,-1.923 0.916,-0.126 1.798,0.531 1.923,1.467 1.181,8.785 -1.238,15.428 -7.187,19.763 -0.46,5.005 -1.47,10.361 -3.011,15.94 -0.208,0.758 -0.898,1.255 -1.648,1.255 z m -5.706,-2.908 c -0.865,0 -1.607,-0.652 -1.7,-1.532 -0.898,-8.506 -0.083,-12.703 0.705,-16.761 0.181,-0.927 1.081,-1.537 2.007,-1.354 0.927,0.181 1.535,1.079 1.353,2.006 -0.741,3.812 -1.507,7.752 -0.662,15.751 0.098,0.939 -0.582,1.782 -1.523,1.88 -0.06,0.006 -0.121,0.01 -0.18,0.01 z"
               fill="#d90000"
               data-fill-palette-color="accent"
               id="path53" /><path
               d="m 67.014,74.863 c -0.776,0 -1.48,-0.532 -1.664,-1.323 -0.214,-0.922 0.358,-1.841 1.277,-2.055 8.207,-1.914 12.375,-3.82 13.933,-6.372 0.79,-1.293 0.924,-2.829 0.422,-4.836 -0.228,-0.916 0.328,-1.845 1.246,-2.075 0.924,-0.23 1.845,0.328 2.075,1.246 0.729,2.914 0.46,5.35 -0.823,7.449 -2.108,3.454 -6.767,5.749 -16.075,7.921 -0.132,0.031 -0.262,0.045 -0.391,0.045 z"
               fill="#d90000"
               data-fill-palette-color="accent"
               id="path55" /><path
               d="m 22.188,91.289 c -0.562,0 -1.112,-0.277 -1.44,-0.784 -2.888,-4.474 -3.672,-7.903 -2.393,-10.478 1.13,-2.277 3.777,-3.592 7.865,-3.903 5.757,-1.094 9.337,-5.84 10.762,-14.485 0.153,-0.933 1.047,-1.564 1.965,-1.411 0.933,0.153 1.564,1.034 1.411,1.965 -1.662,10.096 -6.268,15.922 -13.692,17.319 -2.112,0.171 -4.553,0.639 -5.246,2.035 -0.668,1.346 0.116,3.867 2.205,7.103 0.511,0.794 0.283,1.853 -0.511,2.366 -0.287,0.185 -0.607,0.273 -0.926,0.273 z"
               fill="#d90000"
               data-fill-palette-color="accent"
               id="path57" /><path
               d="m 55.92,77.433 c -3.024,0 -6.015,-1.313 -8.925,-3.918 -2.906,-2.802 -6.166,-4.081 -9.771,-3.902 -0.935,0.065 -1.751,-0.67 -1.802,-1.614 -0.053,-0.943 0.67,-1.751 1.613,-1.801 4.58,-0.265 8.716,1.364 12.289,4.81 2.859,2.56 5.627,3.476 8.429,2.766 0.914,-0.232 1.847,0.32 2.081,1.236 0.234,0.916 -0.32,1.847 -1.236,2.081 -0.894,0.228 -1.788,0.342 -2.678,0.342 z"
               fill="#d90000"
               data-fill-palette-color="accent"
               id="path59" /><path
               d="m 16.256,89.863 c -0.525,0 -1.041,-0.24 -1.375,-0.692 -3.824,-5.156 -4.93,-8.811 -3.944,-13.043 0.116,-0.499 0.452,-0.922 0.914,-1.147 4.289,-2.1 5.861,-4.757 4.94,-8.477 C 9.079,69.392 4.365,69.522 2.019,66.925 -0.423,64.215 0.359,59.299 4.477,51.463 5.068,48.478 4.149,46.95 2.26,45.207 -1.126,42.154 -0.693,37.085 3.459,31.315 3.87,30.744 4.581,30.482 5.271,30.656 c 0.682,0.174 1.187,0.747 1.275,1.444 0.487,3.851 1.945,4.97 3.79,6.387 l 0.529,0.409 c 1.603,1.207 2.474,2.86 2.497,4.761 0.035,3.013 -2.061,6.379 -5.912,9.503 -4.506,8.61 -3.354,10.956 -2.889,11.471 0.483,0.542 2.835,1.996 12.65,-1.962 0.422,-0.173 0.892,-0.165 1.313,0.011 0.419,0.179 0.749,0.517 0.917,0.94 1.69,4.228 2.085,10.033 -5.319,14.039 -0.383,2.44 0.208,5.028 3.506,9.473 0.564,0.758 0.405,1.831 -0.354,2.393 -0.306,0.228 -0.664,0.338 -1.018,0.338 z M 4.257,36.654 C 3.282,38.802 2.878,41.155 4.567,42.68 6.068,44.065 7.428,45.666 7.9,47.977 9.213,46.419 9.953,44.905 9.939,43.696 9.929,42.861 9.562,42.198 8.78,41.61 L 8.253,41.203 C 6.844,40.121 5.308,38.941 4.257,36.654 Z"
               fill="#d90000"
               data-fill-palette-color="accent"
               id="path61" /><path
               d="m 17.85,65.966 c -0.798,0 -1.513,-0.562 -1.676,-1.374 -1.087,-5.411 -0.393,-9.752 2.065,-12.901 2.749,-3.521 7.677,-5.473 14.646,-5.8 0.965,-0.025 1.745,0.686 1.79,1.63 0.043,0.943 -0.686,1.745 -1.629,1.788 -5.928,0.277 -10.001,1.788 -12.109,4.488 -1.818,2.326 -2.289,5.732 -1.407,10.119 0.187,0.927 -0.415,1.829 -1.34,2.016 -0.114,0.022 -0.228,0.034 -0.34,0.034 z"
               fill="#d90000"
               data-fill-palette-color="accent"
               id="path63" /><path
               d="m 37.53,91.289 c -0.562,0 -1.112,-0.277 -1.44,-0.784 -2.886,-4.47 -3.667,-7.895 -2.389,-10.469 1.126,-2.266 3.753,-3.578 7.812,-3.904 2.523,-0.513 4.559,-1.643 6.221,-3.452 0.641,-0.698 1.723,-0.741 2.417,-0.102 0.696,0.639 0.743,1.721 0.102,2.416 -2.163,2.356 -4.914,3.873 -8.174,4.514 -0.067,0.014 -0.134,0.024 -0.2,0.027 -1.947,0.147 -4.415,0.619 -5.113,2.024 -0.666,1.342 0.114,3.861 2.201,7.092 0.511,0.794 0.283,1.853 -0.511,2.365 -0.287,0.185 -0.607,0.273 -0.926,0.273 z"
               fill="#d90000"
               data-fill-palette-color="accent"
               id="path65" /><path
               d="m 31.596,89.863 c -0.458,0 -0.916,-0.185 -1.253,-0.546 -3.523,-3.79 -4.333,-8.479 -4.392,-11.743 -0.016,-0.945 0.737,-1.725 1.68,-1.743 0.012,0 0.022,0 0.032,0 0.931,0 1.694,0.747 1.711,1.68 0.047,2.668 0.688,6.478 3.476,9.475 0.643,0.692 0.603,1.774 -0.088,2.419 -0.331,0.307 -0.749,0.458 -1.166,0.458 z"
               fill="#d90000"
               data-fill-palette-color="accent"
               id="path67" /><path
               d="m 77.681,91.289 c -0.149,0 -0.303,-0.02 -0.456,-0.062 -0.91,-0.252 -1.444,-1.193 -1.192,-2.105 1.711,-6.197 2.928,-17.969 3.252,-21.981 0.077,-0.943 0.906,-1.649 1.843,-1.568 0.941,0.077 1.645,0.902 1.568,1.843 -0.332,4.103 -1.582,16.163 -3.366,22.618 -0.208,0.758 -0.898,1.255 -1.649,1.255 z m -5.478,-2.908 c -0.851,0 -1.588,-0.633 -1.696,-1.499 -0.643,-5.148 -0.703,-10.206 -0.169,-14.24 0.124,-0.937 0.979,-1.584 1.92,-1.471 0.937,0.124 1.595,0.982 1.472,1.919 -0.495,3.755 -0.434,8.502 0.173,13.368 0.118,0.937 -0.548,1.794 -1.486,1.91 -0.072,0.009 -0.143,0.013 -0.214,0.013 z"
               fill="#d90000"
               data-fill-palette-color="accent"
               id="path69" /><path
               d="m 86.123,20.282 c -0.387,0 -0.774,-0.131 -1.095,-0.397 L 84,19.029 c -0.727,-0.604 -0.825,-1.683 -0.22,-2.409 0.605,-0.729 1.684,-0.822 2.409,-0.22 l 1.028,0.856 c 0.727,0.604 0.825,1.683 0.22,2.409 -0.338,0.406 -0.825,0.617 -1.314,0.617 z"
               fill="#d90000"
               data-fill-palette-color="accent"
               id="path71" /><path
               d="m 82.641,61.574 c -0.308,0 -0.621,-0.084 -0.902,-0.259 -0.804,-0.499 -1.047,-1.554 -0.548,-2.356 2.613,-4.197 3.509,-8.101 2.66,-11.602 -1.004,-4.14 -4.488,-8.016 -10.355,-11.52 -0.812,-0.484 -1.077,-1.535 -0.593,-2.346 0.485,-0.812 1.539,-1.076 2.346,-0.592 6.689,3.992 10.701,8.586 11.929,13.652 1.073,4.426 0.035,9.21 -3.083,14.216 -0.324,0.52 -0.882,0.807 -1.454,0.807 z"
               fill="#d90000"
               data-fill-palette-color="accent"
               id="path73" /><path
               d="m 69.24,31.745 c -0.383,0 -0.77,-0.129 -1.089,-0.391 -3.427,-2.826 -6.296,-7.97 -0.493,-16.433 0.534,-0.778 1.599,-0.981 2.378,-0.443 0.78,0.534 0.979,1.599 0.444,2.379 -4.704,6.861 -2.34,10.052 -0.151,11.856 0.729,0.601 0.833,1.68 0.231,2.409 -0.338,0.411 -0.827,0.623 -1.32,0.623 z"
               fill="#d90000"
               data-fill-palette-color="accent"
               id="path75" /><path
               d="m 78.29,97.056 c -1.063,0 -2.197,-0.051 -3.35,-0.104 -0.839,-0.037 -1.611,-0.073 -2.22,-0.072 -0.664,0 -1.273,-0.293 -1.717,-0.824 -1.79,-2.146 -0.495,-9.618 -0.482,-9.693 0.171,-0.927 1.059,-1.533 1.991,-1.377 0.929,0.169 1.546,1.059 1.377,1.99 -0.346,1.9 -0.515,5.13 -0.31,6.496 0.466,0.014 0.979,0.037 1.516,0.063 1.354,0.061 3.843,0.171 5.253,0.002 -0.534,-0.509 -1.537,-1.32 -3.415,-2.517 -0.796,-0.507 -1.032,-1.564 -0.523,-2.362 0.509,-0.794 1.564,-1.034 2.362,-0.522 3.769,2.399 6.136,4.449 5.443,6.639 -0.596,1.884 -2.977,2.281 -5.925,2.281 z"
               fill="#d90000"
               data-fill-palette-color="accent"
               id="path77" /><path
               d="m 64.43,97.056 c -1.063,0 -2.197,-0.051 -3.35,-0.104 -1.735,-0.077 -3.059,0.124 -3.912,-0.868 -1.647,-1.912 -0.764,-8.39 -0.57,-9.67 0.14,-0.935 1.002,-1.592 1.947,-1.436 0.935,0.141 1.578,1.014 1.436,1.947 -0.326,2.152 -0.474,5.221 -0.267,6.547 0.466,0.014 0.98,0.037 1.521,0.063 1.35,0.061 3.839,0.173 5.254,0.002 -0.534,-0.509 -1.537,-1.32 -3.415,-2.517 -0.796,-0.507 -1.032,-1.564 -0.523,-2.362 0.509,-0.794 1.564,-1.034 2.362,-0.522 3.769,2.399 6.136,4.447 5.443,6.639 -0.595,1.884 -2.977,2.281 -5.926,2.281 z"
               fill="#d90000"
               data-fill-palette-color="accent"
               id="path79" /><path
               d="m 22.625,97.056 c -1.063,0 -2.197,-0.051 -3.351,-0.104 -1.652,-0.073 -2.938,0.145 -3.782,-0.776 -1.313,-1.432 -1.153,-5.736 -0.943,-8.172 0.083,-0.941 0.918,-1.635 1.853,-1.558 0.941,0.083 1.639,0.912 1.558,1.853 -0.183,2.085 -0.134,4.154 0.029,5.175 0.446,0.016 0.931,0.037 1.441,0.061 1.352,0.061 3.841,0.171 5.252,0.002 -0.534,-0.509 -1.537,-1.32 -3.415,-2.517 -0.796,-0.507 -1.032,-1.564 -0.523,-2.362 0.509,-0.794 1.566,-1.034 2.362,-0.522 3.769,2.399 6.136,4.449 5.443,6.639 -0.596,1.884 -2.977,2.281 -5.924,2.281 z"
               fill="#d90000"
               data-fill-palette-color="accent"
               id="path81" /><path
               d="m 37.967,97.056 c -1.063,0 -2.197,-0.051 -3.351,-0.104 -1.654,-0.073 -2.938,0.145 -3.782,-0.776 -1.313,-1.432 -1.153,-5.736 -0.943,-8.172 0.083,-0.941 0.933,-1.635 1.853,-1.558 0.941,0.083 1.639,0.912 1.558,1.853 -0.183,2.085 -0.134,4.154 0.029,5.175 0.446,0.016 0.931,0.037 1.441,0.061 1.352,0.061 3.837,0.173 5.252,0.002 -0.532,-0.509 -1.537,-1.32 -3.415,-2.515 -0.796,-0.509 -1.032,-1.566 -0.525,-2.364 0.511,-0.794 1.568,-1.028 2.364,-0.524 3.769,2.401 6.138,4.449 5.445,6.641 -0.596,1.884 -2.977,2.281 -5.926,2.281 z"
               fill="#d90000"
               data-fill-palette-color="accent"
               id="path83" /></g></svg>
      </g>
    </svg>
  </g>
  <rect
     width="998.97418"
     height="537.32062"
     fill="none"
     stroke="none"
     visibility="hidden"
     id="rect110"
     x="-505.86829"
     y="-173.03743"
     style="stroke-width:2.66337" />
</svg>
