<svg xmlns="http://www.w3.org/2000/svg" version="1.1" xmlns:xlink="http://www.w3.org/1999/xlink" xmlns:svgjs="http://svgjs.dev/svgjs" width="1000" height="538" viewBox="0 0 1000 538"><g transform="matrix(1,0,0,1,0.1066666666666265,-0.3391586678382623)"><svg viewBox="0 0 375 202" data-background-color="#ffffff" preserveAspectRatio="xMidYMid meet" height="538" width="1000" xmlns="http://www.w3.org/2000/svg" xmlns:xlink="http://www.w3.org/1999/xlink"><g id="tight-bounds" transform="matrix(1,0,0,1,-0.03976036071776434,0.12773907470705126)"><svg viewBox="0 0 375.07952880859375 201.7449188232422" height="201.7449188232422" width="375.07952880859375"><g><svg></svg></g><g><svg viewBox="0 0 375.07952880859375 201.7449188232422" height="201.7449188232422" width="375.07952880859375"><g transform="matrix(1,0,0,1,-10.220239639282227,-28.44439697265625)"><path xmlns="http://www.w3.org/2000/svg" d="M10.22 218.756v-190.312h375.08v190.312h-22.064l0-4.637h17.427v-181.038h-365.806v181.038l127.012 0 0 4.637z" fill="#0063db" fill-rule="nonzero" stroke="none" stroke-width="1" stroke-linecap="butt" stroke-linejoin="miter" stroke-miterlimit="10" stroke-dasharray="" stroke-dashoffset="0" font-family="none" font-weight="none" font-size="none" text-anchor="none" style="mix-blend-mode: normal" data-fill-palette-color="tertiary"></path><g><path xmlns="http://www.w3.org/2000/svg" d="M162.306 203.968v18.996c0 1.165-0.159 2.142-0.478 2.931-0.322 0.785-0.73 1.449-1.223 1.993-0.497 0.544-1.051 0.991-1.661 1.34-0.614 0.35-1.212 0.67-1.795 0.961v0l-1.369-2.301c0.758-0.369 1.346-0.761 1.765-1.177 0.416-0.42 0.721-0.827 0.915-1.224 0.194-0.4 0.307-0.785 0.338-1.154 0.027-0.369 0.041-0.709 0.041-1.02v0-19.345zM177.748 209.795v6.876c0 1.165 0.074 2.14 0.221 2.925 0.144 0.789 0.303 1.426 0.478 1.911v0c0.214 0.583 0.447 1.039 0.699 1.369v0l-2.593 1.049c-0.253-0.253-0.486-0.554-0.699-0.903v0c-0.175-0.311-0.34-0.686-0.495-1.125-0.155-0.435-0.253-0.954-0.292-1.555v0c-0.33 1.165-0.859 2.043-1.585 2.633-0.73 0.594-1.717 0.892-2.96 0.892v0c-0.913 0-1.703-0.171-2.371-0.513-0.672-0.338-1.231-0.824-1.679-1.457-0.447-0.629-0.777-1.391-0.99-2.284-0.214-0.893-0.32-1.884-0.321-2.971v0c0-1.107 0.171-2.133 0.513-3.077 0.338-0.94 0.814-1.75 1.428-2.43 0.61-0.68 1.342-1.214 2.197-1.602 0.855-0.388 1.797-0.583 2.826-0.583v0c0.583 0 1.191 0.043 1.823 0.128 0.629 0.089 1.216 0.183 1.76 0.28 0.544 0.097 1.006 0.188 1.387 0.274 0.377 0.089 0.594 0.144 0.653 0.163zM171.076 221.536c0.486 0 0.932-0.165 1.34-0.495 0.408-0.33 0.763-0.763 1.066-1.299 0.299-0.532 0.532-1.144 0.7-1.836 0.163-0.688 0.245-1.391 0.244-2.109v0-4.196c-0.194-0.058-0.486-0.126-0.874-0.204-0.388-0.078-0.738-0.117-1.049-0.116v0c-0.738 0-1.344 0.126-1.818 0.378-0.478 0.253-0.862 0.602-1.153 1.049-0.291 0.447-0.495 0.981-0.612 1.603-0.117 0.622-0.175 1.301-0.175 2.039v0c0 0.68 0.019 1.331 0.058 1.952 0.039 0.622 0.142 1.175 0.309 1.661 0.163 0.486 0.4 0.87 0.711 1.154 0.311 0.28 0.728 0.42 1.253 0.419zM190.043 209.183h3.379l0.059 0.233c0.019 0.175 0.049 0.402 0.087 0.682 0.039 0.284 0.074 0.604 0.105 0.961 0.027 0.361 0.041 0.726 0.041 1.096v0c0 2.156-0.159 3.976-0.478 5.46-0.322 1.488-0.808 2.692-1.457 3.612-0.653 0.925-1.478 1.591-2.476 1.999-1.002 0.408-2.183 0.612-3.543 0.612v0c-1.534 0-2.626-0.441-3.275-1.323-0.653-0.886-0.979-2.105-0.979-3.659v0-9.673h3.321v9.585c0 0.816 0.146 1.476 0.437 1.982 0.291 0.505 0.787 0.758 1.486 0.757v0c0.699 0 1.282-0.262 1.748-0.787 0.466-0.524 0.835-1.21 1.108-2.056 0.272-0.843 0.466-1.804 0.582-2.885 0.117-1.076 0.175-2.168 0.175-3.275v0c0-0.408-0.014-0.812-0.041-1.212-0.031-0.396-0.07-0.75-0.116-1.06-0.051-0.311-0.085-0.563-0.105-0.758v0zM208.631 209.795v6.876c0 1.165 0.074 2.14 0.221 2.925 0.144 0.789 0.303 1.426 0.478 1.911v0c0.214 0.583 0.447 1.039 0.699 1.369v0l-2.593 1.049c-0.253-0.253-0.486-0.554-0.699-0.903v0c-0.175-0.311-0.34-0.686-0.495-1.125-0.155-0.435-0.253-0.954-0.292-1.555v0c-0.33 1.165-0.859 2.043-1.585 2.633-0.73 0.594-1.717 0.892-2.96 0.892v0c-0.913 0-1.703-0.171-2.371-0.513-0.672-0.338-1.231-0.824-1.679-1.457-0.447-0.629-0.777-1.391-0.99-2.284-0.214-0.893-0.32-1.884-0.321-2.971v0c0-1.107 0.171-2.133 0.513-3.077 0.338-0.94 0.814-1.75 1.428-2.43 0.61-0.68 1.342-1.214 2.197-1.602 0.855-0.388 1.797-0.583 2.826-0.583v0c0.583 0 1.191 0.043 1.824 0.128 0.629 0.089 1.216 0.183 1.759 0.28 0.544 0.097 1.006 0.188 1.387 0.274 0.377 0.089 0.594 0.144 0.653 0.163zM201.959 221.536c0.486 0 0.932-0.165 1.34-0.495 0.408-0.33 0.763-0.763 1.066-1.299 0.299-0.532 0.532-1.144 0.7-1.836 0.163-0.688 0.245-1.391 0.244-2.109v0-4.196c-0.194-0.058-0.486-0.126-0.874-0.204-0.388-0.078-0.738-0.117-1.049-0.116v0c-0.738 0-1.344 0.126-1.818 0.378-0.478 0.253-0.862 0.602-1.153 1.049-0.291 0.447-0.495 0.981-0.612 1.603-0.117 0.622-0.175 1.301-0.175 2.039v0c0 0.68 0.019 1.331 0.058 1.952 0.039 0.622 0.142 1.175 0.309 1.661 0.163 0.486 0.4 0.87 0.711 1.154 0.311 0.28 0.728 0.42 1.253 0.419zM225.791 203.706v0c0.68 0 1.331 0.062 1.952 0.186 0.622 0.128 1.191 0.274 1.708 0.437 0.513 0.167 0.95 0.338 1.311 0.513 0.357 0.175 0.604 0.311 0.74 0.408v0l-1.428 2.505-0.379-0.204c-0.253-0.136-0.583-0.291-0.99-0.466-0.408-0.175-0.855-0.33-1.34-0.466-0.486-0.136-0.952-0.204-1.399-0.204v0c-0.699 0-1.305 0.165-1.818 0.495-0.517 0.33-0.775 0.845-0.775 1.545v0c0 0.874 0.282 1.587 0.845 2.138 0.563 0.556 1.447 1.066 2.651 1.533v0c0.777 0.311 1.472 0.635 2.086 0.973 0.61 0.342 1.129 0.736 1.556 1.183 0.427 0.447 0.754 0.961 0.979 1.544 0.221 0.583 0.332 1.282 0.332 2.097v0c0 0.738-0.14 1.466-0.419 2.186-0.284 0.719-0.701 1.354-1.253 1.905-0.556 0.556-1.241 1.002-2.057 1.34-0.816 0.342-1.758 0.513-2.826 0.513v0c-0.758 0-1.476-0.078-2.156-0.233-0.68-0.155-1.296-0.336-1.847-0.542-0.556-0.202-1.031-0.41-1.428-0.623-0.4-0.214-0.697-0.379-0.891-0.496v0l1.223-2.68 0.525 0.291c0.35 0.194 0.777 0.408 1.282 0.641 0.505 0.233 1.039 0.447 1.602 0.641 0.563 0.194 1.049 0.291 1.457 0.291v0c1.029 0 1.797-0.253 2.301-0.757 0.505-0.505 0.758-1.214 0.758-2.127v0c0-0.427-0.068-0.802-0.204-1.124-0.136-0.319-0.33-0.594-0.583-0.828-0.253-0.233-0.557-0.443-0.915-0.629-0.361-0.183-0.765-0.361-1.212-0.536v0c-0.874-0.369-1.655-0.738-2.342-1.107-0.691-0.369-1.28-0.792-1.766-1.271-0.486-0.474-0.855-1.018-1.107-1.631-0.253-0.61-0.379-1.342-0.379-2.197v0c0-0.719 0.155-1.395 0.467-2.028 0.311-0.629 0.738-1.183 1.282-1.661 0.544-0.474 1.195-0.853 1.952-1.136 0.758-0.28 1.593-0.42 2.505-0.419zM250.76 225.557l1.194 2.447c-0.816 0.544-1.7 1-2.651 1.37-0.952 0.369-1.971 0.554-3.059 0.553v0c-1.263 0-2.587-0.336-3.974-1.008-1.391-0.668-2.698-1.682-3.922-3.042v0l0.641-1.923c0.233 0.039 0.46 0.074 0.682 0.105 0.225 0.027 0.445 0.041 0.659 0.041v0c0.971 0 1.884-0.223 2.738-0.67 0.855-0.447 1.599-1.097 2.232-1.952 0.629-0.855 1.129-1.907 1.498-3.158 0.369-1.255 0.554-2.688 0.553-4.301v0c0-0.991-0.068-1.942-0.204-2.855-0.136-0.913-0.383-1.725-0.74-2.436-0.361-0.707-0.859-1.274-1.492-1.701-0.629-0.427-1.449-0.641-2.459-0.641v0c-0.855 0-1.577 0.198-2.167 0.594-0.594 0.4-1.08 0.934-1.457 1.603-0.381 0.672-0.658 1.445-0.833 2.319-0.175 0.874-0.262 1.797-0.262 2.768v0c0 1.787 0.219 3.189 0.658 4.207 0.435 1.022 1.284 1.678 2.546 1.969v0l-0.378 2.477c-1.165-0.078-2.16-0.379-2.984-0.903-0.827-0.524-1.498-1.185-2.01-1.982-0.517-0.796-0.892-1.676-1.125-2.639-0.233-0.96-0.35-1.915-0.349-2.867v0c0-1.476 0.179-2.836 0.536-4.079 0.361-1.243 0.907-2.321 1.637-3.234 0.726-0.913 1.637-1.628 2.733-2.144 1.099-0.513 2.387-0.769 3.863-0.769v0c1.457 0 2.706 0.233 3.747 0.699 1.037 0.466 1.886 1.13 2.547 1.993 0.66 0.866 1.146 1.915 1.456 3.146 0.311 1.235 0.466 2.62 0.466 4.155v0c0 1.806-0.223 3.432-0.67 4.877-0.447 1.449-1.045 2.698-1.794 3.747-0.746 1.049-1.614 1.894-2.605 2.535-0.991 0.641-2.03 1.059-3.117 1.252v0c0.447 0.33 0.913 0.569 1.398 0.717 0.486 0.144 0.981 0.216 1.486 0.216v0c0.699 0 1.457-0.126 2.272-0.379 0.816-0.253 1.719-0.622 2.71-1.107zM254.46 223.692v-19.724h3.467v17.102h7.371v2.622zM274.767 223.692v-19.724c0.136 0 0.447-0.006 0.932-0.018 0.486-0.008 1.029-0.012 1.632-0.011 0.602 0 1.204-0.006 1.806-0.018 0.602-0.008 1.097-0.012 1.486-0.011v0c2.37 0 4.118 0.528 5.245 1.585 1.127 1.061 1.69 2.513 1.689 4.358v0c0 0.893-0.155 1.713-0.466 2.459-0.311 0.75-0.773 1.397-1.387 1.94-0.61 0.544-1.367 0.965-2.272 1.265-0.901 0.303-1.954 0.455-3.158 0.454v0h-2.04v7.721zM278.234 206.415v6.963h2.244c1.224 0 2.098-0.32 2.622-0.961 0.524-0.641 0.787-1.457 0.786-2.447v0c0-0.447-0.058-0.884-0.174-1.311-0.117-0.427-0.317-0.812-0.601-1.154-0.28-0.338-0.658-0.61-1.136-0.816-0.474-0.202-1.07-0.303-1.789-0.303v0c-0.427 0-0.802 0-1.124 0-0.319 0-0.594 0.01-0.828 0.029zM300.61 209.795v6.876c0 1.165 0.072 2.14 0.215 2.925 0.148 0.789 0.309 1.426 0.484 1.911v0c0.214 0.583 0.447 1.039 0.699 1.369v0l-2.593 1.049c-0.253-0.253-0.486-0.554-0.699-0.903v0c-0.175-0.311-0.34-0.686-0.495-1.125-0.155-0.435-0.253-0.954-0.292-1.555v0c-0.33 1.165-0.86 2.043-1.59 2.633-0.726 0.594-1.711 0.892-2.955 0.892v0c-0.913 0-1.705-0.171-2.377-0.513-0.668-0.338-1.226-0.824-1.672-1.457-0.447-0.629-0.777-1.391-0.991-2.284-0.214-0.893-0.32-1.884-0.32-2.971v0c0-1.107 0.169-2.133 0.507-3.077 0.342-0.94 0.818-1.75 1.427-2.43 0.614-0.68 1.348-1.214 2.203-1.602 0.855-0.388 1.797-0.583 2.826-0.583v0c0.583 0 1.189 0.043 1.818 0.128 0.633 0.089 1.222 0.183 1.765 0.28 0.544 0.097 1.004 0.188 1.381 0.274 0.381 0.089 0.6 0.144 0.659 0.163zM293.938 221.536c0.486 0 0.932-0.165 1.34-0.495 0.408-0.33 0.761-0.763 1.061-1.299 0.303-0.532 0.536-1.144 0.699-1.836 0.167-0.688 0.251-1.391 0.25-2.109v0-4.196c-0.194-0.058-0.486-0.126-0.874-0.204-0.388-0.078-0.738-0.117-1.048-0.116v0c-0.738 0-1.346 0.126-1.824 0.378-0.474 0.253-0.857 0.602-1.148 1.049-0.291 0.447-0.495 0.981-0.612 1.603-0.117 0.622-0.175 1.301-0.175 2.039v0c0 0.68 0.019 1.331 0.058 1.952 0.039 0.622 0.14 1.175 0.303 1.661 0.167 0.486 0.406 0.87 0.717 1.154 0.311 0.28 0.728 0.42 1.253 0.419zM310.428 212.213c-0.35 0-0.699 0.087-1.048 0.262-0.35 0.175-0.66 0.412-0.933 0.711-0.272 0.303-0.495 0.668-0.67 1.096-0.175 0.427-0.262 0.903-0.262 1.427v0 7.983h-3.322v-7.342c0-1.165-0.078-2.142-0.233-2.931-0.155-0.785-0.32-1.42-0.495-1.905v0c-0.214-0.563-0.447-1.02-0.699-1.37v0l2.622-1.048c0.175 0.214 0.359 0.476 0.554 0.786v0c0.155 0.272 0.311 0.592 0.466 0.962 0.155 0.369 0.282 0.806 0.378 1.311v0c0.388-1.127 0.952-1.938 1.69-2.436 0.738-0.493 1.573-0.74 2.506-0.74v0c0.447 0 0.864 0.052 1.253 0.157 0.388 0.109 0.573 0.163 0.553 0.164v0l-0.932 3.233c0.019 0-0.093-0.054-0.338-0.163-0.241-0.105-0.604-0.157-1.09-0.157zM318.965 208.833v0c0.563 0 1.117 0.058 1.661 0.175 0.544 0.117 1.029 0.253 1.456 0.408v0c0.505 0.175 0.971 0.359 1.399 0.554v0l-0.991 2.272c-0.388-0.175-0.777-0.33-1.165-0.466v0c-0.33-0.117-0.695-0.229-1.096-0.338-0.396-0.105-0.789-0.157-1.177-0.157v0c-0.447 0-0.831 0.107-1.153 0.32-0.319 0.214-0.478 0.534-0.478 0.962v0c0 1.107 0.806 1.971 2.418 2.593v0c0.602 0.233 1.146 0.48 1.632 0.74 0.486 0.264 0.897 0.571 1.235 0.92 0.342 0.35 0.6 0.752 0.775 1.207 0.175 0.458 0.262 0.998 0.262 1.619v0c0 0.544-0.111 1.078-0.332 1.603-0.225 0.524-0.557 0.991-0.997 1.398-0.435 0.408-0.969 0.732-1.602 0.973-0.629 0.245-1.342 0.367-2.138 0.368v0c-0.641 0-1.272-0.072-1.894-0.216-0.622-0.148-1.179-0.309-1.673-0.484-0.497-0.175-0.892-0.34-1.182-0.495v0l-0.437-0.204 1.078-2.447 0.378 0.204c0.253 0.155 0.573 0.32 0.962 0.495 0.388 0.175 0.806 0.334 1.253 0.478 0.447 0.148 0.855 0.221 1.223 0.221v0c0.68 0 1.185-0.136 1.515-0.408 0.33-0.272 0.495-0.631 0.495-1.078v0c0-0.505-0.181-0.967-0.541-1.387-0.357-0.416-0.895-0.759-1.615-1.031v0c-1.496-0.563-2.57-1.204-3.222-1.923-0.649-0.719-0.973-1.651-0.973-2.797v0c0-0.544 0.126-1.064 0.379-1.561 0.253-0.493 0.596-0.93 1.031-1.311 0.439-0.377 0.96-0.672 1.562-0.886 0.602-0.214 1.253-0.32 1.952-0.321zM325.812 216.787c0-1.301 0.181-2.447 0.542-3.438 0.357-0.991 0.853-1.822 1.485-2.494 0.629-0.668 1.371-1.173 2.226-1.515 0.855-0.338 1.777-0.507 2.768-0.507v0c0.874 0 1.618 0.107 2.232 0.321 0.61 0.214 1.109 0.505 1.497 0.874 0.388 0.369 0.676 0.806 0.863 1.311 0.183 0.505 0.274 1.049 0.274 1.632v0c0 0.699-0.194 1.364-0.583 1.992-0.388 0.633-0.948 1.187-1.678 1.661-0.726 0.478-1.604 0.857-2.634 1.136-1.029 0.284-2.185 0.435-3.467 0.455v0c0.058 0.447 0.15 0.868 0.274 1.264 0.128 0.4 0.315 0.75 0.559 1.049 0.241 0.303 0.556 0.542 0.944 0.717 0.388 0.175 0.874 0.262 1.457 0.262v0c0.427 0 0.884-0.049 1.369-0.146 0.486-0.097 0.932-0.214 1.34-0.349v0c0.486-0.155 0.961-0.33 1.428-0.525v0l0.874 2.069c-0.505 0.253-1.049 0.476-1.631 0.67v0c-0.505 0.175-1.088 0.33-1.749 0.466-0.66 0.136-1.36 0.204-2.097 0.204v0c-1.127 0-2.088-0.171-2.885-0.513-0.796-0.338-1.447-0.818-1.952-1.439-0.505-0.622-0.874-1.369-1.107-2.243-0.233-0.874-0.35-1.845-0.349-2.914zM332.571 211.106c-0.641 0-1.169 0.15-1.585 0.449-0.42 0.303-0.756 0.693-1.008 1.171-0.253 0.474-0.431 1.008-0.536 1.602-0.109 0.59-0.173 1.187-0.192 1.789v0c0.932-0.039 1.725-0.161 2.377-0.367 0.649-0.202 1.177-0.455 1.585-0.758 0.408-0.299 0.705-0.623 0.891-0.973 0.183-0.35 0.274-0.699 0.274-1.048v0c0-0.563-0.165-1.016-0.495-1.358-0.33-0.338-0.767-0.507-1.311-0.507zM346.964 212.213c-0.35 0-0.699 0.087-1.049 0.262-0.35 0.175-0.66 0.412-0.933 0.711-0.272 0.303-0.495 0.668-0.67 1.096-0.175 0.427-0.262 0.903-0.262 1.427v0 7.983h-3.321v-7.342c0-1.165-0.078-2.142-0.233-2.931-0.155-0.785-0.32-1.42-0.496-1.905v0c-0.214-0.563-0.447-1.02-0.699-1.37v0l2.622-1.048c0.175 0.214 0.359 0.476 0.554 0.786v0c0.155 0.272 0.311 0.592 0.466 0.962 0.155 0.369 0.282 0.806 0.379 1.311v0c0.388-1.127 0.952-1.938 1.69-2.436 0.738-0.493 1.573-0.74 2.505-0.74v0c0.447 0 0.864 0.052 1.253 0.157 0.388 0.109 0.573 0.163 0.554 0.164v0l-0.933 3.233c0.019 0-0.093-0.054-0.338-0.163-0.241-0.105-0.604-0.157-1.089-0.157z" fill="#0063db" fill-rule="nonzero" stroke="none" stroke-width="1" stroke-linecap="butt" stroke-linejoin="miter" stroke-miterlimit="10" stroke-dasharray="" stroke-dashoffset="0" font-family="none" font-weight="none" font-size="none" text-anchor="none" style="mix-blend-mode: normal" data-fill-palette-color="secondary"></path></g></g><g transform="matrix(1,0,0,1,29.331764404296877,65.342690275259)"><svg viewBox="0 0 316.416 71.05953827272418" height="71.05953827272418" width="316.416"><g><svg viewBox="0 0 437.6354806039484 98.28256214438687" height="71.05953827272418" width="316.416"><g transform="matrix(1,0,0,1,121.21948060394843,13.58319057132988)"><svg viewBox="0 0 316.416 71.11618100172711" height="71.11618100172711" width="316.416"><g><svg viewBox="0 0 316.416 71.11618100172711" height="71.11618100172711" width="316.416"><g><svg viewBox="0 0 316.416 71.11618100172711" height="71.11618100172711" width="316.416"><g transform="matrix(1,0,0,1,0,0)"><svg width="316.416" viewBox="1.440000057220459 -37.5 212.00999450683594 47.65999984741211" height="71.11618100172711" data-palette-color="#0063db"><path d="M16.09-10.4L16.09-35.55 20.58-35.55 20.58-10.38Q20.58-5.27 17.98-2.39 15.38 0.49 10.99 0.49L10.99 0.49Q6.47 0.49 3.96-2.25 1.44-4.98 1.44-9.81L1.44-9.81 5.91-9.81Q5.91-6.76 7.25-5.05 8.59-3.34 10.99-3.34L10.99-3.34Q13.31-3.34 14.7-5.2 16.09-7.06 16.09-10.4L16.09-10.4ZM43.53-8.98L43.53-8.98Q43.53-11.65 42.09-13.06 40.65-14.48 36.89-15.82 33.13-17.16 31.14-18.64 29.15-20.12 28.16-22.01 27.17-23.9 27.17-26.34L27.17-26.34Q27.17-30.57 29.99-33.3 32.81-36.04 37.38-36.04L37.38-36.04Q40.5-36.04 42.94-34.63 45.38-33.23 46.7-30.74 48.02-28.25 48.02-25.27L48.02-25.27 43.53-25.27Q43.53-28.56 41.94-30.37 40.35-32.18 37.38-32.18L37.38-32.18Q34.67-32.18 33.18-30.66 31.69-29.15 31.69-26.42L31.69-26.42Q31.69-24.17 33.3-22.66 34.91-21.14 38.28-19.95L38.28-19.95Q43.53-18.21 45.79-15.67 48.04-13.13 48.04-9.03L48.04-9.03Q48.04-4.71 45.24-2.11 42.43 0.49 37.6 0.49L37.6 0.49Q34.49 0.49 31.87-0.87 29.25-2.22 27.74-4.68 26.24-7.13 26.24-10.3L26.24-10.3 30.73-10.3Q30.73-7.01 32.58-5.18 34.42-3.34 37.6-3.34L37.6-3.34Q40.55-3.34 42.04-4.86 43.53-6.37 43.53-8.98ZM52.39-11.69L52.39-14.4Q52.39-20.58 54.63-23.74 56.88-26.9 61.32-26.9L61.32-26.9Q65.16-26.9 67.28-23.83L67.28-23.83 67.48-26.42 71.43-26.42 71.43 10.16 67.11 10.16 67.11-2.32Q65.01 0.49 61.3 0.49L61.3 0.49Q57.03 0.49 54.73-2.62 52.44-5.74 52.39-11.69L52.39-11.69ZM56.71-14.58L56.71-11.94Q56.71-7.5 58.08-5.35 59.44-3.2 62.42-3.2L62.42-3.2Q65.45-3.2 67.11-6.1L67.11-6.1 67.11-20.26Q65.35-23.19 62.45-23.19L62.45-23.19Q59.47-23.19 58.1-21.04 56.73-18.9 56.71-14.58L56.71-14.58ZM82.98-37.5L82.98 0 78.65 0 78.65-37.5 82.98-37.5ZM102.02-13.92L94.84-13.92 94.84 0 90.37 0 90.37-35.55 101.7-35.55Q106.66-35.55 109.49-32.58 112.32-29.61 112.32-24.68L112.32-24.68Q112.32-19.56 109.62-16.78 106.92-14.01 102.02-13.92L102.02-13.92ZM94.84-31.69L94.84-17.75 101.7-17.75Q104.68-17.75 106.26-19.53 107.85-21.31 107.85-24.63L107.85-24.63Q107.85-27.83 106.22-29.76 104.58-31.69 101.72-31.69L101.72-31.69 94.84-31.69ZM135.29 0L130.8 0Q130.41-0.85 130.24-2.88L130.24-2.88Q127.94 0.49 124.38 0.49L124.38 0.49Q120.79 0.49 118.77-1.53 116.76-3.54 116.76-7.2L116.76-7.2Q116.76-11.23 119.49-13.6 122.23-15.97 126.99-16.02L126.99-16.02 130.16-16.02 130.16-18.82Q130.16-21.19 129.11-22.19 128.06-23.19 125.92-23.19L125.92-23.19Q123.96-23.19 122.74-22.03 121.52-20.87 121.52-19.09L121.52-19.09 117.2-19.09Q117.2-21.12 118.4-22.96 119.59-24.8 121.62-25.85 123.64-26.9 126.13-26.9L126.13-26.9Q130.19-26.9 132.3-24.89 134.41-22.88 134.46-19.02L134.46-19.02 134.46-5.69Q134.48-2.64 135.29-0.39L135.29-0.39 135.29 0ZM125.04-3.44L125.04-3.44Q126.62-3.44 128.06-4.32 129.5-5.2 130.16-6.52L130.16-6.52 130.16-12.82 127.72-12.82Q124.65-12.77 122.86-11.44 121.08-10.11 121.08-7.71L121.08-7.71Q121.08-5.47 121.98-4.46 122.89-3.44 125.04-3.44ZM152.04-26.56L152.06-22.36Q151.16-22.53 150.11-22.53L150.11-22.53Q146.79-22.53 145.47-18.9L145.47-18.9 145.47 0 141.15 0 141.15-26.42 145.35-26.42 145.42-23.73Q147.15-26.9 150.33-26.9L150.33-26.9Q151.35-26.9 152.04-26.56L152.04-26.56ZM169.2-6.76L169.2-6.76Q169.2-8.15 168.15-9.16 167.1-10.16 164.09-11.5L164.09-11.5Q160.6-12.94 159.17-13.96 157.75-14.99 157.04-16.3 156.33-17.6 156.33-19.41L156.33-19.41Q156.33-22.63 158.69-24.77 161.04-26.9 164.7-26.9L164.7-26.9Q168.56-26.9 170.91-24.66 173.25-22.41 173.25-18.9L173.25-18.9 168.95-18.9Q168.95-20.68 167.76-21.94 166.56-23.19 164.7-23.19L164.7-23.19Q162.8-23.19 161.71-22.2 160.63-21.22 160.63-19.56L160.63-19.56Q160.63-18.24 161.42-17.43 162.21-16.63 165.24-15.31L165.24-15.31Q170.05-13.43 171.78-11.63 173.52-9.84 173.52-7.08L173.52-7.08Q173.52-3.64 171.15-1.57 168.78 0.49 164.8 0.49L164.8 0.49Q160.68 0.49 158.11-1.88 155.55-4.25 155.55-7.89L155.55-7.89 159.89-7.89Q159.97-5.69 161.24-4.44 162.51-3.2 164.8-3.2L164.8-3.2Q166.95-3.2 168.07-4.16 169.2-5.13 169.2-6.76ZM188.58 0.49L188.58 0.49Q183.65 0.49 181.01-2.45 178.37-5.4 178.32-11.08L178.32-11.08 178.32-14.28Q178.32-20.19 180.9-23.55 183.48-26.9 188.09-26.9L188.09-26.9Q192.73-26.9 195.02-23.95 197.32-21 197.37-14.75L197.37-14.75 197.37-11.91 182.62-11.91 182.62-11.3Q182.62-7.06 184.22-5.13 185.82-3.2 188.82-3.2L188.82-3.2Q190.73-3.2 192.18-3.92 193.63-4.64 194.9-6.2L194.9-6.2 197.15-3.47Q194.34 0.49 188.58 0.49ZM188.09-23.19L188.09-23.19Q185.4-23.19 184.11-21.35 182.82-19.51 182.65-15.63L182.65-15.63 193.05-15.63 193.05-16.21Q192.88-19.97 191.69-21.58 190.51-23.19 188.09-23.19ZM213.43-26.56L213.45-22.36Q212.55-22.53 211.5-22.53L211.5-22.53Q208.18-22.53 206.86-18.9L206.86-18.9 206.86 0 202.54 0 202.54-26.42 206.74-26.42 206.81-23.73Q208.55-26.9 211.72-26.9L211.72-26.9Q212.75-26.9 213.43-26.56L213.43-26.56Z" opacity="1" transform="matrix(1,0,0,1,0,0)" fill="#0063db" class="undefined-text-0" data-fill-palette-color="primary" id="text-0"></path></svg></g></svg></g></svg></g></svg></g><g><svg viewBox="0 0 104.4306570577847 98.28256214438687" height="98.28256214438687" width="104.4306570577847"><g><svg xmlns="http://www.w3.org/2000/svg" xmlns:xlink="http://www.w3.org/1999/xlink" version="1.1" x="0" y="0" viewBox="-0.000012636184692382812 2.943608522415161 100.00003051757812 94.11277770996094" style="enable-background:new 0 0 100 100;" xml:space="preserve" width="104.4306570577847" height="98.28256214438687" class="icon-icon-0" data-fill-palette-color="accent" id="icon-0"><g fill="#d90000" data-fill-palette-color="accent"><path d="M82.643 61.574c-0.346 0-0.692-0.104-0.991-0.316-0.66-0.468-0.902-1.338-0.577-2.081 2.228-5.095-1.33-7.875-12.916-15.147-9.418-5.919-10.939-11.99-10.553-16.039 0.623-6.572 6.779-12.603 16.886-16.548 0.886-0.345 1.875 0.093 2.217 0.972 0.344 0.88-0.09 1.873-0.971 2.215-8.862 3.458-14.228 8.445-14.725 13.684-0.42 4.435 2.68 8.868 8.966 12.818 7.997 5.02 13.974 8.77 15.014 13.759 2.886-3.537 4.388-6.999 4.476-10.334 0.094-3.633-1.521-7.198-4.804-10.597-1.114-1.146-2.201-2.218-3.237-3.239-2.633-2.598-4.908-4.842-6.578-7.239-0.538-0.775-0.348-1.842 0.426-2.381 0.78-0.543 1.841-0.348 2.384 0.426 1.487 2.138 3.659 4.279 6.171 6.758 1.051 1.037 2.157 2.127 3.292 3.294 3.947 4.087 5.887 8.482 5.767 13.067-0.143 5.451-3.199 10.992-9.082 16.468C83.482 61.419 83.063 61.574 82.643 61.574z" fill="#d90000" data-fill-palette-color="accent"></path><path d="M74.942 17.828c-0.886 0-1.635-0.683-1.703-1.58-0.202-2.638 0.307-4.913 1.556-6.956 0.45-0.732 1.375-1.014 2.153-0.67 3.179 1.412 4.938 3.567 5.229 6.407 0.096 0.94-0.588 1.78-1.527 1.878-0.925 0.099-1.778-0.587-1.876-1.528-0.081-0.773-0.367-1.828-1.759-2.818-0.346 1.026-0.464 2.145-0.365 3.425 0.073 0.942-0.633 1.764-1.574 1.836C75.031 17.826 74.985 17.828 74.942 17.828z" fill="#d90000" data-fill-palette-color="accent"></path><path d="M84.922 33.456c-0.367 0-0.739-0.119-1.051-0.362-0.745-0.582-0.876-1.657-0.295-2.402 2.163-2.772 5.211-3.991 9.048-3.627 1.474-0.057 2.525-0.417 3.127-1.07 0.546-0.592 0.823-1.536 0.829-2.808-6.028-6.561-11.872-9.717-17.362-9.355-0.951 0.044-1.757-0.655-1.818-1.598-0.061-0.943 0.654-1.757 1.598-1.817 6.728-0.446 13.634 3.251 20.547 10.944 0.259 0.29 0.413 0.66 0.434 1.049 0.141 2.53-0.434 4.515-1.709 5.901-1.263 1.375-3.167 2.108-5.655 2.178-0.079-0.004-0.149-0.001-0.222-0.009-2.727-0.284-4.667 0.456-6.121 2.318C85.936 33.23 85.431 33.456 84.922 33.456z" fill="#d90000" data-fill-palette-color="accent"></path><path d="M88.573 37.734c-0.859 0-1.599-0.644-1.698-1.518-0.108-0.938 0.566-1.786 1.505-1.893 3.61-0.412 5.034-2.134 4.763-5.758-0.071-0.942 0.635-1.764 1.578-1.835 0.929-0.059 1.763 0.636 1.833 1.579 0.409 5.451-2.356 8.794-7.785 9.413C88.702 37.73 88.638 37.734 88.573 37.734z" fill="#d90000" data-fill-palette-color="accent"></path><path d="M59.832 57.069c-0.505 0-1.006-0.222-1.344-0.649-0.586-0.741-0.462-1.818 0.279-2.405 0.741-0.586 1.116-1.214 1.15-1.922 0.045-0.977-0.584-2.163-1.728-3.255-1.047-1.047-2.214-1.677-3.601-1.955-0.544-0.109-1.002-0.476-1.228-0.984-0.226-0.508-0.191-1.093 0.094-1.571 2.026-3.389 2.639-6.237 1.821-8.461-0.865-2.358-3.415-4.275-7.576-5.697C31.227 24.558 20.218 17.313 14.897 8.595c-0.955 3.632 0.228 8.349 9.25 13.754 0.812 0.485 1.075 1.537 0.59 2.347-0.483 0.811-1.535 1.078-2.346 0.588C9.055 17.299 10.087 9.182 13.301 3.778c0.326-0.551 0.916-0.86 1.58-0.833 0.641 0.041 1.204 0.438 1.46 1.028 4.006 9.261 14.929 16.985 32.462 22.958 5.189 1.773 8.447 4.383 9.685 7.758 1.014 2.763 0.652 5.956-1.077 9.514 1.169 0.514 2.23 1.246 3.172 2.188 1.859 1.776 2.845 3.869 2.752 5.864-0.081 1.704-0.925 3.242-2.442 4.444C60.579 56.947 60.203 57.069 59.832 57.069z" fill="#d90000" data-fill-palette-color="accent"></path><path d="M22.129 32.316c-0.171 0-0.346-0.027-0.518-0.082-5.722-1.822-9.487-4.666-11.192-8.449-1.664-3.693-1.34-8.213 0.962-13.435 0.383-0.866 1.397-1.253 2.256-0.874 0.865 0.381 1.258 1.391 0.876 2.255-1.896 4.295-2.222 7.877-0.974 10.647 1.289 2.861 4.354 5.08 9.109 6.596 0.902 0.287 1.399 1.249 1.112 2.15C23.528 31.851 22.854 32.316 22.129 32.316z" fill="#d90000" data-fill-palette-color="accent"></path><path d="M29.58 41.912c-6.639 0-14.305-3.115-17.717-15.944-0.242-0.914 0.301-1.851 1.214-2.094 0.91-0.249 1.849 0.301 2.095 1.214 2.623 9.871 8.036 14.202 16.525 13.283 0.933-0.091 1.786 0.575 1.888 1.514s-0.576 1.784-1.515 1.888C31.264 41.861 30.431 41.912 29.58 41.912z" fill="#d90000" data-fill-palette-color="accent"></path><path d="M36.542 48.407c-6.582 0-11.463-2.843-14.544-8.484-0.454-0.829-0.147-1.87 0.682-2.323 0.825-0.451 1.869-0.147 2.32 0.682 2.996 5.484 8.007 7.574 15.334 6.375 0.922-0.146 1.812 0.48 1.963 1.414 0.153 0.932-0.479 1.812-1.413 1.963C39.364 48.283 37.915 48.407 36.542 48.407z" fill="#d90000" data-fill-palette-color="accent"></path><path d="M44.087 54.85c-6.522 0-11.029-2.674-13.422-7.971-0.389-0.862-0.006-1.875 0.857-2.264 0.863-0.39 1.875-0.004 2.263 0.855 2.079 4.61 6.06 6.457 12.534 5.845 0.925-0.098 1.776 0.599 1.867 1.541s-0.599 1.776-1.54 1.866C45.761 54.807 44.909 54.85 44.087 54.85z" fill="#d90000" data-fill-palette-color="accent"></path><path d="M54.24 68.361c-0.196 0-0.397-0.033-0.592-0.106-12.173-4.488-17.661-9.946-16.308-16.222 0.198-0.925 1.104-1.519 2.031-1.313 0.924 0.198 1.513 1.108 1.313 2.032-1.165 5.419 7.05 9.675 14.147 12.292 0.886 0.326 1.34 1.311 1.014 2.197C55.59 67.933 54.936 68.361 54.24 68.361z" fill="#d90000" data-fill-palette-color="accent"></path><path d="M56.694 47.487c-0.637 0-1.246-0.355-1.542-0.965-0.411-0.851-0.057-1.874 0.793-2.286 3.252-1.577 4.993-3.713 5.321-6.53 0.11-0.939 0.984-1.603 1.899-1.501 0.939 0.109 1.611 0.959 1.501 1.898-0.468 4.014-2.9 7.113-7.227 9.212C57.199 47.432 56.944 47.487 56.694 47.487z" fill="#d90000" data-fill-palette-color="accent"></path><path d="M63.994 91.289c-0.149 0-0.303-0.02-0.456-0.062-0.91-0.25-1.444-1.193-1.193-2.105 1.564-5.671 2.562-11.09 2.965-16.108 0.041-0.521 0.32-0.994 0.755-1.285 5.347-3.58 7.435-9.121 6.384-16.942-0.126-0.937 0.531-1.798 1.468-1.923 0.916-0.126 1.798 0.531 1.923 1.467 1.181 8.785-1.238 15.428-7.187 19.763-0.46 5.005-1.47 10.361-3.011 15.94C65.434 90.792 64.744 91.289 63.994 91.289zM58.288 88.381c-0.865 0-1.607-0.652-1.7-1.532-0.898-8.506-0.083-12.703 0.705-16.761 0.181-0.927 1.081-1.537 2.007-1.354 0.927 0.181 1.535 1.079 1.353 2.006-0.741 3.812-1.507 7.752-0.662 15.751 0.098 0.939-0.582 1.782-1.523 1.88C58.408 88.377 58.347 88.381 58.288 88.381z" fill="#d90000" data-fill-palette-color="accent"></path><path d="M67.014 74.863c-0.776 0-1.48-0.532-1.664-1.323-0.214-0.922 0.358-1.841 1.277-2.055 8.207-1.914 12.375-3.82 13.933-6.372 0.79-1.293 0.924-2.829 0.422-4.836-0.228-0.916 0.328-1.845 1.246-2.075 0.924-0.23 1.845 0.328 2.075 1.246 0.729 2.914 0.46 5.35-0.823 7.449-2.108 3.454-6.767 5.749-16.075 7.921C67.273 74.849 67.143 74.863 67.014 74.863z" fill="#d90000" data-fill-palette-color="accent"></path><path d="M22.188 91.289c-0.562 0-1.112-0.277-1.44-0.784-2.888-4.474-3.672-7.903-2.393-10.478 1.13-2.277 3.777-3.592 7.865-3.903 5.757-1.094 9.337-5.84 10.762-14.485 0.153-0.933 1.047-1.564 1.965-1.411 0.933 0.153 1.564 1.034 1.411 1.965-1.662 10.096-6.268 15.922-13.692 17.319-2.112 0.171-4.553 0.639-5.246 2.035-0.668 1.346 0.116 3.867 2.205 7.103 0.511 0.794 0.283 1.853-0.511 2.366C22.827 91.201 22.507 91.289 22.188 91.289z" fill="#d90000" data-fill-palette-color="accent"></path><path d="M55.92 77.433c-3.024 0-6.015-1.313-8.925-3.918-2.906-2.802-6.166-4.081-9.771-3.902-0.935 0.065-1.751-0.67-1.802-1.614-0.053-0.943 0.67-1.751 1.613-1.801 4.58-0.265 8.716 1.364 12.289 4.81 2.859 2.56 5.627 3.476 8.429 2.766 0.914-0.232 1.847 0.32 2.081 1.236 0.234 0.916-0.32 1.847-1.236 2.081C57.704 77.319 56.81 77.433 55.92 77.433z" fill="#d90000" data-fill-palette-color="accent"></path><path d="M16.256 89.863c-0.525 0-1.041-0.24-1.375-0.692-3.824-5.156-4.93-8.811-3.944-13.043 0.116-0.499 0.452-0.922 0.914-1.147 4.289-2.1 5.861-4.757 4.94-8.477C9.079 69.392 4.365 69.522 2.019 66.925c-2.442-2.71-1.66-7.626 2.458-15.462 0.591-2.985-0.328-4.513-2.217-6.256-3.386-3.053-2.953-8.122 1.199-13.892 0.411-0.571 1.122-0.833 1.812-0.659 0.682 0.174 1.187 0.747 1.275 1.444 0.487 3.851 1.945 4.97 3.79 6.387l0.529 0.409c1.603 1.207 2.474 2.86 2.497 4.761 0.035 3.013-2.061 6.379-5.912 9.503-4.506 8.61-3.354 10.956-2.889 11.471 0.483 0.542 2.835 1.996 12.65-1.962 0.422-0.173 0.892-0.165 1.313 0.011 0.419 0.179 0.749 0.517 0.917 0.94 1.69 4.228 2.085 10.033-5.319 14.039-0.383 2.44 0.208 5.028 3.506 9.473 0.564 0.758 0.405 1.831-0.354 2.393C16.968 89.753 16.61 89.863 16.256 89.863zM4.257 36.654c-0.975 2.148-1.379 4.501 0.31 6.026 1.501 1.385 2.861 2.986 3.333 5.297 1.313-1.558 2.053-3.072 2.039-4.281-0.01-0.835-0.377-1.498-1.159-2.086l-0.527-0.407C6.844 40.121 5.308 38.941 4.257 36.654z" fill="#d90000" data-fill-palette-color="accent"></path><path d="M17.85 65.966c-0.798 0-1.513-0.562-1.676-1.374-1.087-5.411-0.393-9.752 2.065-12.901 2.749-3.521 7.677-5.473 14.646-5.8 0.965-0.025 1.745 0.686 1.79 1.63 0.043 0.943-0.686 1.745-1.629 1.788-5.928 0.277-10.001 1.788-12.109 4.488-1.818 2.326-2.289 5.732-1.407 10.119 0.187 0.927-0.415 1.829-1.34 2.016C18.076 65.954 17.962 65.966 17.85 65.966z" fill="#d90000" data-fill-palette-color="accent"></path><path d="M37.53 91.289c-0.562 0-1.112-0.277-1.44-0.784-2.886-4.47-3.667-7.895-2.389-10.469 1.126-2.266 3.753-3.578 7.812-3.904 2.523-0.513 4.559-1.643 6.221-3.452 0.641-0.698 1.723-0.741 2.417-0.102 0.696 0.639 0.743 1.721 0.102 2.416-2.163 2.356-4.914 3.873-8.174 4.514-0.067 0.014-0.134 0.024-0.2 0.027-1.947 0.147-4.415 0.619-5.113 2.024-0.666 1.342 0.114 3.861 2.201 7.092 0.511 0.794 0.283 1.853-0.511 2.365C38.169 91.201 37.849 91.289 37.53 91.289z" fill="#d90000" data-fill-palette-color="accent"></path><path d="M31.596 89.863c-0.458 0-0.916-0.185-1.253-0.546-3.523-3.79-4.333-8.479-4.392-11.743-0.016-0.945 0.737-1.725 1.68-1.743 0.012 0 0.022 0 0.032 0 0.931 0 1.694 0.747 1.711 1.68 0.047 2.668 0.688 6.478 3.476 9.475 0.643 0.692 0.603 1.774-0.088 2.419C32.431 89.712 32.013 89.863 31.596 89.863z" fill="#d90000" data-fill-palette-color="accent"></path><path d="M77.681 91.289c-0.149 0-0.303-0.02-0.456-0.062-0.91-0.252-1.444-1.193-1.192-2.105 1.711-6.197 2.928-17.969 3.252-21.981 0.077-0.943 0.906-1.649 1.843-1.568 0.941 0.077 1.645 0.902 1.568 1.843-0.332 4.103-1.582 16.163-3.366 22.618C79.122 90.792 78.432 91.289 77.681 91.289zM72.203 88.381c-0.851 0-1.588-0.633-1.696-1.499-0.643-5.148-0.703-10.206-0.169-14.24 0.124-0.937 0.979-1.584 1.92-1.471 0.937 0.124 1.595 0.982 1.472 1.919-0.495 3.755-0.434 8.502 0.173 13.368 0.118 0.937-0.548 1.794-1.486 1.91C72.345 88.377 72.274 88.381 72.203 88.381z" fill="#d90000" data-fill-palette-color="accent"></path><path d="M86.123 20.282c-0.387 0-0.774-0.131-1.095-0.397l-1.028-0.856c-0.727-0.604-0.825-1.683-0.22-2.409 0.605-0.729 1.684-0.822 2.409-0.22l1.028 0.856c0.727 0.604 0.825 1.683 0.22 2.409C87.099 20.071 86.612 20.282 86.123 20.282z" fill="#d90000" data-fill-palette-color="accent"></path><path d="M82.641 61.574c-0.308 0-0.621-0.084-0.902-0.259-0.804-0.499-1.047-1.554-0.548-2.356 2.613-4.197 3.509-8.101 2.66-11.602-1.004-4.14-4.488-8.016-10.355-11.52-0.812-0.484-1.077-1.535-0.593-2.346 0.485-0.812 1.539-1.076 2.346-0.592 6.689 3.992 10.701 8.586 11.929 13.652 1.073 4.426 0.035 9.21-3.083 14.216C83.771 61.287 83.213 61.574 82.641 61.574z" fill="#d90000" data-fill-palette-color="accent"></path><path d="M69.24 31.745c-0.383 0-0.77-0.129-1.089-0.391-3.427-2.826-6.296-7.97-0.493-16.433 0.534-0.778 1.599-0.981 2.378-0.443 0.78 0.534 0.979 1.599 0.444 2.379-4.704 6.861-2.34 10.052-0.151 11.856 0.729 0.601 0.833 1.68 0.231 2.409C70.222 31.533 69.733 31.745 69.24 31.745z" fill="#d90000" data-fill-palette-color="accent"></path><path d="M78.29 97.056c-1.063 0-2.197-0.051-3.35-0.104-0.839-0.037-1.611-0.073-2.22-0.072-0.664 0-1.273-0.293-1.717-0.824-1.79-2.146-0.495-9.618-0.482-9.693 0.171-0.927 1.059-1.533 1.991-1.377 0.929 0.169 1.546 1.059 1.377 1.99-0.346 1.9-0.515 5.13-0.31 6.496 0.466 0.014 0.979 0.037 1.516 0.063 1.354 0.061 3.843 0.171 5.253 0.002-0.534-0.509-1.537-1.32-3.415-2.517-0.796-0.507-1.032-1.564-0.523-2.362 0.509-0.794 1.564-1.034 2.362-0.522 3.769 2.399 6.136 4.449 5.443 6.639C83.619 96.659 81.238 97.056 78.29 97.056z" fill="#d90000" data-fill-palette-color="accent"></path><path d="M64.43 97.056c-1.063 0-2.197-0.051-3.35-0.104-1.735-0.077-3.059 0.124-3.912-0.868-1.647-1.912-0.764-8.39-0.57-9.67 0.14-0.935 1.002-1.592 1.947-1.436 0.935 0.141 1.578 1.014 1.436 1.947-0.326 2.152-0.474 5.221-0.267 6.547 0.466 0.014 0.98 0.037 1.521 0.063 1.35 0.061 3.839 0.173 5.254 0.002-0.534-0.509-1.537-1.32-3.415-2.517-0.796-0.507-1.032-1.564-0.523-2.362 0.509-0.794 1.564-1.034 2.362-0.522 3.769 2.399 6.136 4.447 5.443 6.639C69.761 96.659 67.379 97.056 64.43 97.056z" fill="#d90000" data-fill-palette-color="accent"></path><path d="M22.625 97.056c-1.063 0-2.197-0.051-3.351-0.104-1.652-0.073-2.938 0.145-3.782-0.776-1.313-1.432-1.153-5.736-0.943-8.172 0.083-0.941 0.918-1.635 1.853-1.558 0.941 0.083 1.639 0.912 1.558 1.853-0.183 2.085-0.134 4.154 0.029 5.175 0.446 0.016 0.931 0.037 1.441 0.061 1.352 0.061 3.841 0.171 5.252 0.002-0.534-0.509-1.537-1.32-3.415-2.517-0.796-0.507-1.032-1.564-0.523-2.362 0.509-0.794 1.566-1.034 2.362-0.522 3.769 2.399 6.136 4.449 5.443 6.639C27.953 96.659 25.572 97.056 22.625 97.056z" fill="#d90000" data-fill-palette-color="accent"></path><path d="M37.967 97.056c-1.063 0-2.197-0.051-3.351-0.104-1.654-0.073-2.938 0.145-3.782-0.776-1.313-1.432-1.153-5.736-0.943-8.172 0.083-0.941 0.933-1.635 1.853-1.558 0.941 0.083 1.639 0.912 1.558 1.853-0.183 2.085-0.134 4.154 0.029 5.175 0.446 0.016 0.931 0.037 1.441 0.061 1.352 0.061 3.837 0.173 5.252 0.002-0.532-0.509-1.537-1.32-3.415-2.515-0.796-0.509-1.032-1.566-0.525-2.364 0.511-0.794 1.568-1.028 2.364-0.524 3.769 2.401 6.138 4.449 5.445 6.641C43.297 96.659 40.916 97.056 37.967 97.056z" fill="#d90000" data-fill-palette-color="accent"></path></g></svg></g></svg></g></svg></g></svg></g></svg></g><defs></defs></svg><rect width="375.07952880859375" height="201.7449188232422" fill="none" stroke="none" visibility="hidden"></rect></g></svg></g></svg>